<?xml version="1.0" encoding="UTF-8" standalone="no"?>
<!DOCTYPE svg PUBLIC "-//W3C//DTD SVG 1.1//EN" "http://www.w3.org/Graphics/SVG/1.1/DTD/svg11.dtd">
<svg width="100%" height="100%" viewBox="0 0 512 510" version="1.1" xmlns="http://www.w3.org/2000/svg" xmlns:xlink="http://www.w3.org/1999/xlink" xml:space="preserve" xmlns:serif="http://www.serif.com/" style="fill-rule:evenodd;clip-rule:evenodd;stroke-linejoin:round;stroke-miterlimit:2;">
    <path id="Vector" d="M512,115.61L512,394.03C512,457.837 460.197,509.64 396.39,509.64L115.61,509.64C51.803,509.64 0,457.837 0,394.03L0,115.61C0,51.803 51.803,0 115.61,0L396.39,0C460.197,0 512,51.803 512,115.61ZM323.74,148.35L264.21,216.39L212.75,148.35L138.22,148.35L227.27,264.81L142.87,361.28L179.01,361.28L244.16,286.85L301.09,361.28L373.78,361.28L280.95,238.55L359.86,148.35L323.74,148.35ZM311.06,339.66L180.4,168.84L201.88,168.84L331.08,339.66L311.06,339.66Z" style="fill:rgb(228,241,242);"/>
</svg>
