<?xml version="1.0" encoding="UTF-8" standalone="no"?>
<!DOCTYPE svg PUBLIC "-//W3C//DTD SVG 1.1//EN" "http://www.w3.org/Graphics/SVG/1.1/DTD/svg11.dtd">
<svg width="100%" height="100%" viewBox="0 0 328 234" version="1.1" xmlns="http://www.w3.org/2000/svg" xmlns:xlink="http://www.w3.org/1999/xlink" xml:space="preserve" xmlns:serif="http://www.serif.com/" style="fill-rule:evenodd;clip-rule:evenodd;stroke-linejoin:round;stroke-miterlimit:2;">
    <path d="M78,116.8C78,69.4 116.4,31 163.8,31C211.2,31 249.6,69.4 249.6,116.8C249.6,164.2 211.2,202.6 163.8,202.6C116.4,202.5 78,164.1 78,116.8ZM202.4,81.9C195.1,78.6 187.5,76.2 179.6,74.9C178.6,76.7 177.5,79 176.7,80.9C168.3,79.6 159.8,79.6 151.4,80.9C150.5,78.8 149.5,76.8 148.4,74.9C140.5,76.2 132.8,78.6 125.6,82C111.2,103.5 107.3,124.4 109.2,145.1C117.7,151.4 127.1,156.2 137.2,159.2C139.5,156.1 141.5,152.9 143.2,149.5C139.9,148.3 136.8,146.8 133.8,145C134.6,144.4 135.3,143.8 136.1,143.2C153.8,151.6 174.4,151.6 192.1,143.2C192.9,143.8 193.6,144.4 194.4,145C191.4,146.8 188.2,148.3 184.9,149.5C186.6,152.9 188.6,156.1 190.9,159.2C201,156.1 210.5,151.4 218.9,145.1C221.1,121.1 214.9,100.3 202.4,81.9ZM145.6,132.3C140.1,132.3 135.7,127.3 135.7,121.2C135.7,115.1 140.1,110 145.6,110C151.2,110 155.6,115 155.6,121.2C155.5,127.3 151.2,132.3 145.6,132.3ZM182.4,132.3C176.9,132.3 172.5,127.3 172.5,121.2C172.5,115.1 176.9,110 182.4,110C188,110 192.4,115 192.3,121.2C192.2,127.4 187.9,132.3 182.4,132.3Z" style="fill:rgb(228,241,242);"/>
</svg>
